<?xml version="1.0" encoding="utf-8"?>
<svg viewBox="0 0 448 443" xmlns="http://www.w3.org/2000/svg">
  <path d="M 301.173 381.53 L 301.173 381.529 C 294.552 345.493 327.447 325.846 358.796 340.549 C 342.738 362.137 322.549 374.775 301.173 381.53 Z M 260.802 442.289 L 260.805 442.288 C 291.026 442.555 320.324 427.496 340.966 401.394 C 343.006 414.215 343.149 427.03 342.446 439.85 C 364.052 413.598 375.138 387.332 373.959 361.082 C 391.511 345.035 407.443 328.776 434.34 317.146 L 447.849 281.597 L 420.602 263.959 L 289.235 300.555 L 286.797 340.171 C 218.323 352.949 181.394 276.612 322.142 222.921 C 514.184 149.661 305.13 -75.114 128.679 26.758 C -9.968 106.808 -43.227 304.293 62.314 367.413 C 55.296 375.98 47.171 383.191 37.541 388.53 C 82.985 410.082 129.282 419.187 177.794 396.342 C 143.214 377.576 108.527 358.964 90.806 313.8 C 85.678 327.328 80.012 340.215 73.207 351.673 C 18.024 288.196 6.894 166.881 160.108 101.603 C 275.067 52.624 314.683 138.149 257.055 171.397 C 44.657 293.936 166.772 414.938 286.535 399.275 C 278.558 423.213 249.965 433.18 217.439 430.818 C 231.537 438.503 246.272 442.162 260.802 442.289 Z" style="fill: rgb(220, 38, 38);" transform="matrix(-1, 0, 0, -1, 447.999298, 442.999878)"/>
</svg>